<svg xmlns="http://www.w3.org/2000/svg" width="58" height="78"><defs><linearGradient id="a" x1="50%" x2="50%" y1="4.1%" y2="96.86%"><stop offset="0%" stop-opacity=".05"/><stop offset="98.9%" stop-opacity=".13"/></linearGradient></defs><g fill="none" fill-rule="evenodd"><g transform="translate(0 27)"><rect width="57.5" height="45.78" x=".23" y=".97" fill="#000" fill-rule="nonzero" rx="7.04" transform="translate(0 4)"/><rect width="57.5" height="45.78" x=".23" y=".97" fill="#AB4C1D" rx="7.04" transform="translate(0 4)"/><rect width="57.5" height="45.78" x=".23" y=".46" fill="#FF6C24" fill-rule="nonzero" rx="7.04"/></g><g fill-rule="nonzero"><path fill="#FF6C24" d="M35.19 3.2c-.4-.92-1.52-2.54-6.24-2.54-4.73 0-6.1 1.62-6.49 2.54L6.06 48.53c-.03.23-.04.47-.04.72 0 6.22 10.28 11.26 22.96 11.26 12.68 0 22.96-5.04 22.96-11.26 0-.25-.01-.49-.04-.72L35.19 3.2z"/><path fill="url(#a)" d="M29.19 3.2c-.4-.92-1.52-2.54-6.24-2.54-4.73 0-6.1 1.62-6.49 2.54L.06 48.53c-.03.23-.04.47-.04.72 0 6.22 10.28 11.26 22.96 11.26 12.68 0 22.96-5.04 22.96-11.26 0-.25-.01-.49-.04-.72L29.19 3.2z" transform="translate(6)"/></g><path fill="#E6E6E6" d="M8.5 41.8l3.5-9.72A31 31 0 0029 37a31 31 0 0016.86-4.84l3.58 9.69C43.82 45.07 36.72 47 29 47c-7.75 0-14.88-1.94-20.5-5.2zm31.67-25.08l2.8 7.6A29.4 29.4 0 0129 27.77c-5.22 0-10.08-1.3-14.15-3.54l2.77-7.63A21.9 21.9 0 0029 19.77c4.08 0 7.9-1.11 11.17-3.05z"/></g></svg>